<svg preserveAspectRatio="none" width="100%" height="100%" overflow="visible" style="display: block;" viewBox="0 0 14 32" fill="none" xmlns="http://www.w3.org/2000/svg">
<path id="Ellipse 499" d="M7 1C7.63562 1 8.31967 1.29053 9.0293 1.97656C9.7437 2.66723 10.4328 3.71475 11.0332 5.08691C12.2327 7.82858 13 11.6863 13 16C13 20.3137 12.2327 24.1714 11.0332 26.9131C10.4328 28.2853 9.7437 29.3328 9.0293 30.0234C8.31967 30.7095 7.63562 31 7 31C6.36438 31 5.68033 30.7095 4.9707 30.0234C4.2563 29.3328 3.56715 28.2853 2.9668 26.9131C1.76732 24.1714 1 20.3137 1 16C1 11.6863 1.76732 7.82858 2.9668 5.08691C3.56715 3.71475 4.2563 2.66723 4.9707 1.97656C5.68033 1.29053 6.36438 1 7 1Z" stroke="var(--stroke-0, #212121)" stroke-width="2"/>
</svg>
