<svg preserveAspectRatio="none" width="100%" height="100%" overflow="visible" style="display: block;" viewBox="0 0 41.5403 60.7386" fill="none" xmlns="http://www.w3.org/2000/svg">
<path id="Vector" d="M33.6348 57.6924C22.4422 64.2066 6.41668 59.9179 0 48.2136L6.15678 43.4864C8.30921 46.1261 10.2667 48.4735 13.0771 50.2361C17.4631 52.9814 22.8483 53.6637 27.5349 51.6169C30.4914 50.3254 32.1727 47.6938 32.392 44.8184C32.6276 41.6507 30.9625 38.8566 27.9979 37.289C24.5621 35.4777 21.102 33.8776 17.5362 32.2288C10.2586 28.8823 3.16772 24.4313 3.28955 15.6266C3.35453 10.8994 5.52323 6.41584 9.60879 3.57301C19.1038 -3.03048 34.4714 -0.29324 40.3845 10.2334L34.2277 14.9443C30.2721 9.04749 23.5305 6.4727 16.992 8.75509C14.2141 9.72977 12.6141 12.3127 12.411 14.8631C12.1755 17.8765 13.6862 20.5244 16.4965 21.889L29.0375 27.9808C32.7738 29.792 36.4776 31.9201 38.8899 35.4046C44.0558 42.8366 41.3348 53.2089 33.6348 57.6924Z" fill="var(--fill-0, white)"/>
</svg>
