<svg preserveAspectRatio="none" width="100%" height="100%" overflow="visible" style="display: block;" viewBox="0 0 58.3382 60.6908" fill="none" xmlns="http://www.w3.org/2000/svg">
<path id="Vector" d="M49.363 43.6818L49.4523 36.859L31.2663 36.8184L31.2013 29.0291L58.3382 28.9966L58.3057 45.4119C52.5063 55.3293 41.996 60.7632 30.6003 60.6901C17.9456 60.6089 6.63115 52.982 2.19634 41.7162C-2.61211 29.492 0.620588 15.8383 10.4649 7.4073C23.3308 -3.59852 44.7738 -2.55886 55.0568 11.9964L48.5913 17.3004C43.921 10.5831 36.8139 7.60224 29.0327 8.16268C19.0178 8.88557 11.1878 16.0251 9.6202 26.0157C8.53992 32.8791 9.95321 39.8156 14.4611 45.1682C23.2983 55.6623 41.3462 55.508 49.3386 43.6656L49.363 43.6818Z" fill="var(--fill-0, white)"/>
</svg>
