<svg preserveAspectRatio="none" width="100%" height="100%" overflow="visible" style="display: block;" viewBox="0 0 120.004 119.99" fill="none" xmlns="http://www.w3.org/2000/svg">
<path id="Vector" d="M74.8315 34.0008C70.7053 18.349 55.2647 8.14727 39.2717 9.97481C23.1975 11.8023 9.89305 25.2611 9.86869 41.9526L9.73873 116.614L0 116.646L0.13808 41.6115C0.186815 18.0891 20.3466 -0.113183 43.1542 0.000529875C66.3679 0.114243 85.2687 18.6251 85.9266 41.7577C86.5845 64.7846 68.7478 84.652 45.0629 85.9434C50.375 105.283 71.7287 115.452 90.0853 107.516C108.401 99.5971 115.979 77.3662 105.437 59.83L113.738 54.7047C127.456 77.2281 117.685 106.428 93.8216 116.54C69.3326 126.921 41.6678 112.91 35.3405 87.4623C28.8913 61.5519 47.0204 35.7715 74.8315 33.9846V34.0008ZM76.1392 43.8045C58.0344 44.2675 44.1208 58.9446 43.8608 76.229C61.6813 75.5874 75.7168 61.357 76.1392 43.8045Z" fill="var(--fill-0, white)"/>
</svg>
