<svg preserveAspectRatio="none" width="100%" height="100%" overflow="visible" style="display: block;" viewBox="0 0 61.3239 61.3402" fill="none" xmlns="http://www.w3.org/2000/svg">
<path id="Vector" d="M61.3239 30.6701C61.3239 47.6053 47.5971 61.3402 30.6619 61.3402C13.7268 61.3402 0 47.6134 0 30.6701C0 13.7268 13.7268 0 30.6619 0C47.5971 0 61.3239 13.7268 61.3239 30.6701ZM29.9553 52.901C38.0371 53.1366 45.136 49.311 49.116 42.5288C53.3803 35.2755 53.4371 26.2272 49.2379 18.8926C45.0061 11.5094 37.0137 7.80561 28.6233 8.52038C20.306 9.22702 13.3207 14.336 10.5347 22.2391C8.47164 28.0872 8.59345 34.3252 10.9652 40.0433C14.1654 47.7677 21.3293 52.6493 29.9553 52.901Z" fill="var(--fill-0, white)"/>
</svg>
