<svg preserveAspectRatio="none" width="100%" height="100%" overflow="visible" style="display: block;" viewBox="0 0 120 24" fill="none" xmlns="http://www.w3.org/2000/svg">
<g id="logo" clip-path="url(#clip0_0_23)">
<path id="Vector" d="M14.9468 6.80016C14.1215 3.6698 11.0334 1.62945 7.83481 1.99496C4.61997 2.36047 1.95908 5.05223 1.95421 8.39052L1.92821 23.3227L-0.0195312 23.3292L0.00808483 8.32229C0.0178317 3.61781 4.04978 -0.0226367 8.61131 0.000105975C13.2541 0.0228486 17.0342 3.72503 17.1658 8.35153C17.2974 12.9569 13.73 16.9304 8.99306 17.1887C10.0555 21.0566 14.3262 23.0904 17.9975 21.5033C21.6607 19.9194 23.1764 15.4732 21.0678 11.966L22.728 10.9409C25.4717 15.4456 23.5175 21.2856 18.7448 23.3081C13.847 25.3842 8.31403 22.5819 7.04856 17.4925C5.75873 12.3104 9.38456 7.1543 14.9468 6.79691V6.80016ZM15.2083 8.7609C11.5873 8.8535 8.80462 11.7889 8.75264 15.2458C12.3167 15.1175 15.1238 12.2714 15.2083 8.7609Z" fill="var(--fill-0, white)"/>
<path id="Vector_2" d="M106.678 18.0107L106.654 10.491L103.226 14.9697C103.031 15.0184 102.789 15.0298 102.574 14.9989L99.0997 10.4667L99.0819 17.9912H97.3047V6.11469C97.498 6.06758 97.7319 6.06433 97.9122 6.11469L102.886 12.7377L107.883 6.08869C108.067 6.0757 108.281 6.08545 108.447 6.11469V17.9896L106.676 18.0107H106.678Z" fill="var(--fill-0, white)"/>
<path id="Vector_3" d="M95.3195 12.1418C95.3195 15.5289 92.5741 18.2759 89.1871 18.2759C85.8 18.2759 83.0547 15.5305 83.0547 12.1418C83.0547 8.75318 85.8 6.00781 89.1871 6.00781C92.5741 6.00781 95.3195 8.75318 95.3195 12.1418ZM89.0457 16.588C90.6621 16.6351 92.0819 15.87 92.8779 14.5136C93.7307 13.0629 93.7421 11.2532 92.9023 9.78634C92.0559 8.30969 90.4574 7.56893 88.7793 7.71189C87.1159 7.85322 85.7188 8.87501 85.1616 10.4556C84.749 11.6252 84.7734 12.8728 85.2477 14.0165C85.8878 15.5614 87.3206 16.5377 89.0457 16.588Z" fill="var(--fill-0, white)"/>
<path id="Vector_4" d="M67.5953 14.8106L67.6131 13.446L63.9759 13.4379L63.9629 11.88L69.3903 11.8735L69.3838 15.1566C68.2239 17.1401 66.1219 18.2269 63.8427 18.2122C61.3118 18.196 59.0489 16.6706 58.1619 14.4175C57.2002 11.9726 57.8468 9.24188 59.8156 7.55568C62.3888 5.35451 66.6774 5.56245 68.734 8.47351L67.4409 9.53429C66.5069 8.19085 65.0854 7.59467 63.5292 7.70675C61.5262 7.85133 59.9602 9.27925 59.6467 11.2774C59.4306 12.65 59.7133 14.0373 60.6149 15.1079C62.3823 17.2067 65.9919 17.1758 67.5904 14.8073L67.5953 14.8106Z" fill="var(--fill-0, white)"/>
<path id="Vector_5" d="M55.7682 18.1024C55.6561 18.2389 55.2744 18.2811 55.1574 18.1479L47.9106 9.90046L47.8944 17.9952L46.1172 17.992V6.12355C46.2715 6.06994 46.6386 6.01958 46.7507 6.14304L53.9732 14.3434L53.9926 6.27788H55.7682V18.1008V18.1024Z" fill="var(--fill-0, white)"/>
<path id="Vector_6" d="M33.2349 11.9094L35.3304 11.8477C36.4643 11.8152 37.2197 10.8957 37.1872 9.78296C37.158 8.75467 36.4529 7.87745 35.3662 7.86771L32.0571 7.83522L32.0539 17.9914L30.2734 18.0028V6.27734H35.2281C35.8389 6.27734 36.4221 6.44142 36.9712 6.64448C38.2675 7.20167 39.0066 8.40541 39.0196 9.79596C39.0342 11.31 38.1944 12.6274 36.7031 13.1554L40.1876 17.9508C39.5135 18.0337 38.8832 18.0158 38.1911 17.9947L33.2332 11.9094H33.2349Z" fill="var(--fill-0, white)"/>
<path id="Vector_7" d="M77.1938 16.5793C78.6185 16.4802 79.7166 15.7281 80.5077 14.5666L81.8463 15.5575C80.2917 18.0787 77.0021 18.8162 74.3802 17.7229C72.1238 16.7823 70.6927 14.6462 70.6683 12.1997C70.6423 9.66227 72.1433 7.41887 74.5118 6.50917C77.1353 5.50199 80.3372 6.26712 81.8431 8.7282L80.5045 9.7175C79.5509 8.22624 77.9313 7.48385 76.1964 7.74214C73.4007 8.15801 71.963 10.9229 72.7216 13.5139C73.2951 15.473 75.1047 16.7255 77.1938 16.5793Z" fill="var(--fill-0, white)"/>
<path id="Vector_8" d="M117.016 17.6127C114.777 18.9155 111.572 18.0578 110.289 15.7169L111.52 14.7715C111.951 15.2994 112.342 15.7689 112.904 16.1214C113.782 16.6705 114.859 16.807 115.796 16.3976C116.387 16.1393 116.724 15.613 116.767 15.0379C116.815 14.4044 116.482 13.8455 115.889 13.532C115.201 13.1698 114.509 12.8497 113.796 12.52C112.341 11.8507 110.923 10.9605 110.947 9.19954C110.96 8.2541 111.394 7.35739 112.211 6.78882C114.11 5.46812 117.183 6.01557 118.366 8.12089L117.135 9.06309C116.343 7.88372 114.995 7.36876 113.687 7.82524C113.132 8.02017 112.812 8.53676 112.771 9.04684C112.724 9.64952 113.026 10.1791 113.588 10.452L116.097 11.6704C116.844 12.0326 117.585 12.4582 118.067 13.1551C119.1 14.6415 118.556 16.716 117.016 17.6127Z" fill="var(--fill-0, white)"/>
<path id="Vector_9" d="M43.4523 6.26562H41.6719V18.0073H43.4523V6.26562Z" fill="var(--fill-0, white)"/>
<path id="Vector_10" d="M20.0431 10.5159C20.7465 10.5159 21.3167 9.94572 21.3167 9.24234C21.3167 8.53896 20.7465 7.96875 20.0431 7.96875C19.3397 7.96875 18.7695 8.53896 18.7695 9.24234C18.7695 9.94572 19.3397 10.5159 20.0431 10.5159Z" fill="var(--fill-0, white)"/>
</g>
<defs>
<clipPath id="clip0_0_23">
<rect width="120" height="24" fill="white"/>
</clipPath>
</defs>
</svg>
