<svg width="64" height="64" viewBox="0 0 64 64" fill="none" xmlns="http://www.w3.org/2000/svg">
  <g transform="translate(9.8 8) scale(1.51)" fill="#4D1A2D">
    <path d="M18.6844 8.5002C17.6529 4.58725 13.7927 2.03682 9.79449 2.4937C5.77594 2.95059 2.44983 6.31528 2.44373 10.4882L2.41124 29.1534L-0.0234375 29.1615L0.0110826 10.4029C0.0232662 4.52227 5.0632 -0.0282959 10.7651 0.000132469C16.5685 0.0285608 21.2937 4.65629 21.4582 10.4394C21.6227 16.1962 17.1635 21.163 11.2423 21.4859C12.5703 26.3207 17.9087 28.863 22.4979 26.8791C27.0769 24.8993 28.9714 19.3415 26.3357 14.9575L28.411 13.6762C31.8406 19.307 29.3978 26.607 23.432 29.1351C17.3097 31.7302 10.3935 28.2274 8.81168 21.8656C7.19939 15.388 11.7317 8.94287 18.6844 8.49614V8.5002ZM19.0114 10.9511C14.4852 11.0669 11.0068 14.7362 10.9418 19.0573C15.3969 18.8968 18.9058 15.3392 19.0114 10.9511Z"/>
    <path d="M25.0529 13.1449C25.9322 13.1449 26.6449 12.4322 26.6449 11.5529C26.6449 10.6737 25.9322 9.96094 25.0529 9.96094C24.1737 9.96094 23.4609 10.6737 23.4609 11.5529C23.4609 12.4322 24.1737 13.1449 25.0529 13.1449Z"/>
  </g>
</svg>
