<!-- 대한민국 국기(태극기) 원형 아이콘 20×20. Figma nav 언어 드롭다운(node 6671:13934)에서 추출 후 20×20 뷰박스로 정규화 -->
<svg width="20" height="20" viewBox="0 0 20 20" fill="none" xmlns="http://www.w3.org/2000/svg">
<g transform="translate(-2,-2)">
<mask id="flagKrMask" style="mask-type:alpha" maskUnits="userSpaceOnUse" x="2" y="2" width="20" height="20">
<circle cx="12" cy="12" r="10" fill="#D9D9D9"/>
</mask>
<g mask="url(#flagKrMask)">
<path d="M-3.00293 2V22.0421H27.0602V2H-3.00293Z" fill="white"/>
<path d="M4.69853 4.10742L1.91895 8.27659M2.96113 8.97138L5.74051 4.80221M6.7827 5.49721L4.00353 9.66617M17.2054 18.4674L18.4791 16.5567M18.7109 16.2093L19.9846 14.2984M21.027 14.9932L19.753 16.9041M19.5213 17.2515L18.2476 19.1621M19.2898 19.8571L20.5637 17.9463M20.7954 17.5989L22.0689 15.688M1.91915 15.688L4.69853 19.8571M5.74072 19.1621L4.46679 17.2515M4.23526 16.9041L2.96134 14.9932M4.00374 14.2984L6.7829 18.4676M19.9848 9.66617L18.7111 7.75529M18.4793 7.40789L17.2056 5.49721M18.2478 4.80242L21.0272 8.97138M22.0694 8.27659L20.7954 6.3657M20.5637 6.01831L19.2902 4.10742" stroke="black" stroke-width="0.835086"/>
<path d="M14.0821 13.3658C13.8084 13.7764 13.4565 14.1291 13.0464 14.4037C12.6364 14.6783 12.1763 14.8695 11.6923 14.9663C10.715 15.1618 9.70008 14.961 8.87078 14.4082C8.04148 13.8553 7.46576 12.9957 7.27028 12.0184C7.07479 11.0411 7.27555 10.0261 7.82838 9.19682C8.19265 8.64769 8.66166 8.17581 9.20855 7.80819C9.75545 7.44058 10.3695 7.18445 11.0155 7.05448C11.6615 6.92451 12.3268 6.92325 12.9733 7.05076C13.6198 7.17828 14.2349 7.43207 14.7831 7.7976C15.3314 8.16314 15.8022 8.63323 16.1686 9.18097C16.5349 9.72871 16.7896 10.3433 16.9181 10.9897C17.0466 11.636 17.0463 12.3013 16.9173 12.9475C16.7883 13.5937 16.5331 14.2081 16.1663 14.7556" fill="#CD2E3A"/>
<path d="M7.30566 10.5498C7.30269 10.7343 7.31776 10.9198 7.35449 11.1035C7.49024 11.7822 7.88992 12.3797 8.46582 12.7637C9.04159 13.1474 9.74628 13.286 10.4248 13.1504C11.1035 13.0146 11.701 12.615 12.085 12.0391C12.4381 11.5095 12.9872 11.1415 13.6113 11.0166C14.2356 10.8917 14.8843 11.02 15.4141 11.373C15.9439 11.7263 16.3116 12.276 16.4365 12.9004C16.5614 13.5248 16.4333 14.1733 16.0801 14.7031C15.7228 15.239 15.2636 15.6992 14.7285 16.0576C14.1932 16.4161 13.5918 16.6666 12.96 16.793C11.6841 17.048 10.359 16.7852 9.27637 16.0635C8.19382 15.3417 7.44171 14.2192 7.18652 12.9434C7.02607 12.1407 7.07108 11.3187 7.30566 10.5498Z" fill="#0047A0" stroke="black" stroke-width="0.208772"/>
</g>
</g>
</svg>
