<svg preserveAspectRatio="none" width="100%" height="100%" overflow="visible" style="display: block;" viewBox="0 0 48 48" fill="none" xmlns="http://www.w3.org/2000/svg">
<g id="computer_arrow_up">
<mask id="mask0_0_74" style="mask-type:alpha" maskUnits="userSpaceOnUse" x="0" y="0" width="48" height="48">
<rect id="Bounding box" width="48" height="48" fill="var(--fill-0, #D9D9D9)"/>
</mask>
<g mask="url(#mask0_0_74)">
<path id="computer_arrow_up_2" d="M2.7695 40.4615V38.192H45.2305V40.4615H2.7695ZM7.8845 35.4615C7.10017 35.4615 6.42333 35.1768 5.854 34.6075C5.28467 34.0382 5 33.3613 5 32.577V10.3465C5 9.56217 5.28467 8.88517 5.854 8.3155C6.42333 7.74617 7.10017 7.4615 7.8845 7.4615H40.1155C40.8998 7.4615 41.5767 7.74617 42.146 8.3155C42.7153 8.88517 43 9.56217 43 10.3465V32.577C43 33.3613 42.7153 34.0382 42.146 34.6075C41.5767 35.1768 40.8998 35.4615 40.1155 35.4615H7.8845ZM7.8845 33.1925H40.1155C40.2692 33.1925 40.4102 33.1283 40.5385 33C40.6665 32.8717 40.7305 32.7307 40.7305 32.577V10.3465C40.7305 10.1925 40.6665 10.0513 40.5385 9.923C40.4102 9.795 40.2692 9.731 40.1155 9.731H7.8845C7.73083 9.731 7.58983 9.795 7.4615 9.923C7.3335 10.0513 7.2695 10.1925 7.2695 10.3465V32.577C7.2695 32.7307 7.3335 32.8717 7.4615 33C7.58983 33.1283 7.73083 33.1925 7.8845 33.1925ZM22.846 29.1345H25.1155V18.073L29.2 22.1575L30.8 20.558L23.981 13.758L17.2 20.5195L18.8 22.1195L22.846 18.073V29.1345Z" fill="var(--fill-0, #1C1B1F)"/>
</g>
</g>
</svg>
