<svg preserveAspectRatio="none" width="100%" height="100%" overflow="visible" style="display: block;" viewBox="0 0 24 24" fill="none" xmlns="http://www.w3.org/2000/svg">
<g id="construction">
<mask id="mask0_0_83" style="mask-type:alpha" maskUnits="userSpaceOnUse" x="0" y="0" width="24" height="24">
<rect id="Bounding box" width="24" height="24" fill="var(--fill-0, #D9D9D9)"/>
</mask>
<g mask="url(#mask0_0_83)">
<path id="construction_2" d="M18.9288 20.5L13.4155 14.9865L14.996 13.4057L20.5095 18.9192L18.9288 20.5ZM5.08075 20.5L3.5 18.9192L10.429 11.9905L8.09425 9.66525L7.47125 10.2885L6.35975 9.16725V11.0922L5.7365 11.7152L2.9135 8.89225L3.5365 8.26925H5.4615L4.35575 7.173L7.2135 4.3155C7.4955 4.03333 7.80092 3.82692 8.12975 3.69625C8.45858 3.56542 8.80058 3.5 9.15575 3.5C9.51092 3.5 9.85292 3.56542 10.1817 3.69625C10.5106 3.82692 10.816 4.03333 11.098 4.3155L9.125 6.2885L10.298 7.4615L9.675 8.0845L12.0095 10.4097L14.4135 8.00575C14.302 7.80325 14.2206 7.594 14.1693 7.378C14.1179 7.16183 14.0923 6.93458 14.0923 6.69625C14.0923 5.79625 14.4025 5.036 15.023 4.4155C15.6435 3.795 16.4038 3.48475 17.3038 3.48475C17.5154 3.48475 17.7177 3.50333 17.9105 3.5405C18.1035 3.57767 18.2974 3.63983 18.4923 3.727L16.2193 6L18 7.78075L20.273 5.50775C20.3705 5.70258 20.4353 5.8965 20.4673 6.0895C20.4993 6.28233 20.5153 6.48458 20.5153 6.69625C20.5153 7.59625 20.205 8.3565 19.5845 8.977C18.964 9.5975 18.2038 9.90775 17.3038 9.90775C17.0654 9.90775 16.8382 9.88467 16.622 9.8385C16.406 9.79233 16.1968 9.70833 15.9943 9.5865L5.08075 20.5Z" fill="var(--fill-0, #85888E)"/>
</g>
</g>
</svg>
