<svg preserveAspectRatio="none" width="100%" height="100%" overflow="visible" style="display: block;" viewBox="0 0 20 20" fill="none" xmlns="http://www.w3.org/2000/svg">
<g id="check_box_outline_blank">
<mask id="mask0_0_4" style="mask-type:alpha" maskUnits="userSpaceOnUse" x="0" y="0" width="20" height="20">
<rect id="Bounding box" width="20" height="20" fill="var(--fill-0, #D9D9D9)"/>
</mask>
<g mask="url(#mask0_0_4)">
<path id="check_box_outline_blank_2" d="M4.75646 16.5833C4.38132 16.5833 4.06424 16.4538 3.80521 16.1948C3.54618 15.9358 3.41667 15.6187 3.41667 15.2435V4.75646C3.41667 4.38132 3.54618 4.06424 3.80521 3.80521C4.06424 3.54618 4.38132 3.41667 4.75646 3.41667H15.2435C15.6187 3.41667 15.9358 3.54618 16.1948 3.80521C16.4538 4.06424 16.5833 4.38132 16.5833 4.75646V15.2435C16.5833 15.6187 16.4538 15.9358 16.1948 16.1948C15.9358 16.4538 15.6187 16.5833 15.2435 16.5833H4.75646ZM4.75646 15.5H15.2435C15.3077 15.5 15.3665 15.4733 15.4198 15.4198C15.4733 15.3665 15.5 15.3077 15.5 15.2435V4.75646C15.5 4.69229 15.4733 4.63354 15.4198 4.58021C15.3665 4.52674 15.3077 4.5 15.2435 4.5H4.75646C4.69229 4.5 4.63354 4.52674 4.58021 4.58021C4.52674 4.63354 4.5 4.69229 4.5 4.75646V15.2435C4.5 15.3077 4.52674 15.3665 4.58021 15.4198C4.63354 15.4733 4.69229 15.5 4.75646 15.5Z" fill="var(--fill-0, #FBFDFF)"/>
</g>
</g>
</svg>
