<svg width="97" height="96" viewBox="0 0 96.5854 96" fill="none" xmlns="http://www.w3.org/2000/svg" role="img" aria-label="Target">
  <path d="M48.293 1C74.4176 1.00015 95.585 22.0484 95.585 48C95.585 73.9516 74.4176 94.9998 48.293 95C22.1682 95 1 73.9517 1 48C1 22.0483 22.1682 1 48.293 1Z" stroke="#FBFDFF" stroke-width="2"/>
  <path d="M48.3533 16.8911C65.6463 16.8911 79.6548 30.8232 79.6551 47.9966C79.6551 65.1702 65.6465 79.103 48.3533 79.103C31.0601 79.103 17.0515 65.1702 17.0515 47.9966C17.0518 30.8232 31.0602 16.8911 48.3533 16.8911Z" stroke="#FBFDFF" stroke-width="2"/>
  <path d="M48.2203 32.7909C56.682 32.7909 63.5309 39.6072 63.5309 48.0028C63.5309 56.3984 56.682 63.2147 48.2203 63.2147C39.7588 63.2146 32.9098 56.3983 32.9098 48.0028C32.9098 39.6073 39.7588 32.791 48.2203 32.7909Z" stroke="#FBFDFF" stroke-width="2"/>
</svg>
