<svg width="240" height="240" viewBox="0 0 240 240" fill="none" xmlns="http://www.w3.org/2000/svg" role="img" aria-label="Preparing proposal">
  <path d="M69.4303 215.002C65.4953 215.002 62.1078 213.582 59.2678 210.742C56.4278 207.902 55.0078 204.514 55.0078 200.579V99.0595C55.0078 95.1245 56.4278 91.737 59.2678 88.897C62.1078 86.057 65.4953 84.6369 69.4303 84.6369H170.585C174.52 84.6369 177.908 86.057 180.748 88.897C183.588 91.737 185.008 95.1245 185.008 99.0595V200.579C185.008 204.514 183.588 207.902 180.748 210.742C177.908 213.582 174.52 215.002 170.585 215.002H69.4303ZM113.18 188.637H126.835V179.637H113.18V188.637ZM113.278 169.482H126.738C126.738 166.047 127.437 162.813 128.835 159.779C130.232 156.748 131.866 153.815 133.738 150.982C135.379 148.405 136.928 145.771 138.383 143.079C139.838 140.386 140.565 137.534 140.565 134.522C140.565 128.894 138.546 124.121 134.508 120.204C130.469 116.288 125.636 114.329 120.008 114.329C114.316 114.329 109.476 116.272 105.488 120.157C101.501 124.04 99.5078 128.829 99.5078 134.522C99.5078 137.534 100.209 140.386 101.613 143.079C103.018 145.771 104.54 148.405 106.18 150.982C107.95 153.815 109.575 156.748 111.055 159.779C112.537 162.813 113.278 166.047 113.278 169.482ZM64.9303 64.9445C64.9303 62.0211 65.972 59.582 68.0553 57.627C70.1386 55.672 72.642 54.6945 75.5653 54.6945H164.508C167.494 54.6945 169.988 55.672 171.988 57.627C173.988 59.582 174.988 62.0211 174.988 64.9445H64.9303ZM74.8553 35.252C74.8553 32.3286 75.8711 29.8894 77.9028 27.9344C79.9345 25.9794 82.412 25.002 85.3353 25.002H154.68C157.54 25.002 160.012 25.9794 162.095 27.9344C164.177 29.8894 165.218 32.3286 165.218 35.252H74.8553Z" fill="#85888E"/>
</svg>
