<svg preserveAspectRatio="none" width="100%" height="100%" overflow="visible" style="display: block;" viewBox="0 0 167.676 188" fill="none" xmlns="http://www.w3.org/2000/svg">
<g id="Group 91">
<g id="Optomatic">
<path d="M11.7118 180.351C9.26404 180.351 7.16759 179.818 5.42244 178.753C3.67729 177.676 2.33443 176.18 1.39386 174.265C0.464619 172.35 0 170.129 0 167.602C0 165.075 0.464619 162.854 1.39386 160.939C2.33443 159.024 3.67729 157.533 5.42244 156.468C7.16759 155.392 9.26404 154.853 11.7118 154.853C14.1595 154.853 16.256 155.392 18.0011 156.468C19.7576 157.533 21.1005 159.024 22.0297 160.939C22.9703 162.854 23.4406 165.075 23.4406 167.602C23.4406 170.129 22.9703 172.35 22.0297 174.265C21.1005 176.18 19.7576 177.676 18.0011 178.753C16.256 179.818 14.1595 180.351 11.7118 180.351ZM11.7118 176.492C13.355 176.503 14.7205 176.141 15.8084 175.404C16.9076 174.668 17.7292 173.631 18.2731 172.293C18.8284 170.956 19.106 169.392 19.106 167.602C19.106 165.812 18.8284 164.259 18.2731 162.944C17.7292 161.619 16.9076 160.587 15.8084 159.851C14.7205 159.114 13.355 158.735 11.7118 158.712C10.0686 158.701 8.7031 159.063 7.61521 159.8C6.52733 160.536 5.70574 161.573 5.15047 162.91C4.60653 164.248 4.33455 165.812 4.33455 167.602C4.33455 169.392 4.60653 170.951 5.15047 172.276C5.69441 173.591 6.51033 174.617 7.59822 175.353C8.69744 176.09 10.0686 176.469 11.7118 176.492Z" fill="var(--fill-0, #FBFDFF)"/>
<path d="M34.9662 180.351C33.1757 180.351 31.6742 179.926 30.4617 179.076C29.2491 178.226 28.3369 177.07 27.7249 175.608C27.113 174.135 26.807 172.486 26.807 170.662C26.807 168.815 27.113 167.16 27.7249 165.698C28.3369 164.236 29.2321 163.086 30.4107 162.248C31.6005 161.398 33.0681 160.973 34.8132 160.973C36.547 160.973 38.0485 161.398 39.3177 162.248C40.5983 163.086 41.5898 164.236 42.2924 165.698C42.995 167.149 43.3463 168.803 43.3463 170.662C43.3463 172.497 43.0007 174.146 42.3094 175.608C41.6182 177.07 40.6436 178.226 39.3857 179.076C38.1279 179.926 36.6547 180.351 34.9662 180.351ZM26.1101 188V161.483H29.7307V174.367H30.2407V188H26.1101ZM34.3373 176.679C35.4025 176.679 36.2807 176.413 36.972 175.88C37.6632 175.348 38.1732 174.628 38.5018 173.721C38.8418 172.803 39.0118 171.784 39.0118 170.662C39.0118 169.551 38.8418 168.543 38.5018 167.636C38.1619 166.718 37.6349 165.993 36.921 165.46C36.2071 164.916 35.3005 164.644 34.2013 164.644C33.1587 164.644 32.3088 164.899 31.6515 165.409C30.9943 165.908 30.507 166.61 30.1897 167.517C29.8837 168.412 29.7307 169.46 29.7307 170.662C29.7307 171.852 29.8837 172.9 30.1897 173.806C30.507 174.713 30.9999 175.421 31.6685 175.931C32.3485 176.43 33.238 176.679 34.3373 176.679Z" fill="var(--fill-0, #FBFDFF)"/>
<path d="M57.1731 179.841C55.9605 180.067 54.7706 180.164 53.6034 180.13C52.4476 180.107 51.4107 179.897 50.4928 179.501C49.5749 179.093 48.8779 178.453 48.402 177.58C47.9827 176.787 47.7617 175.976 47.739 175.149C47.7164 174.322 47.705 173.387 47.705 172.344V156.383H51.7846V172.107C51.7846 172.843 51.7903 173.489 51.8016 174.044C51.8243 174.6 51.9433 175.053 52.1586 175.404C52.5665 176.084 53.2181 176.464 54.1134 176.543C55.0086 176.622 56.0285 176.577 57.1731 176.407V179.841ZM44.3734 164.695V161.483H57.1731V164.695H44.3734Z" fill="var(--fill-0, #FBFDFF)"/>
<path d="M67.6193 180.351C65.7835 180.351 64.18 179.937 62.8088 179.11C61.4376 178.283 60.3724 177.144 59.6131 175.693C58.8652 174.231 58.4912 172.554 58.4912 170.662C58.4912 168.735 58.8765 167.047 59.6471 165.596C60.4177 164.146 61.4886 163.012 62.8598 162.197C64.231 161.381 65.8175 160.973 67.6193 160.973C69.4664 160.973 71.0756 161.386 72.4468 162.214C73.818 163.041 74.8832 164.185 75.6425 165.647C76.4017 167.098 76.7813 168.769 76.7813 170.662C76.7813 172.565 76.396 174.248 75.6255 175.71C74.8662 177.161 73.801 178.3 72.4298 179.127C71.0586 179.943 69.4551 180.351 67.6193 180.351ZM67.6193 176.509C69.2511 176.509 70.4637 175.965 71.2569 174.877C72.0502 173.789 72.4468 172.384 72.4468 170.662C72.4468 168.883 72.0445 167.466 71.2399 166.412C70.4353 165.347 69.2285 164.814 67.6193 164.814C66.5201 164.814 65.6135 165.064 64.8996 165.562C64.197 166.049 63.6757 166.735 63.3357 167.619C62.9958 168.492 62.8258 169.506 62.8258 170.662C62.8258 172.441 63.2281 173.863 64.0327 174.928C64.8486 175.982 66.0441 176.509 67.6193 176.509Z" fill="var(--fill-0, #FBFDFF)"/>
<path d="M101.893 179.841V168.69C101.893 167.432 101.582 166.452 100.958 165.749C100.335 165.035 99.4909 164.678 98.4257 164.678C97.7684 164.678 97.1791 164.831 96.6579 165.137C96.1366 165.432 95.723 165.874 95.417 166.463C95.111 167.041 94.958 167.732 94.958 168.537L93.1392 167.466C93.1279 166.197 93.4112 165.081 93.9891 164.117C94.5784 163.143 95.3717 162.384 96.3689 161.84C97.3661 161.296 98.4767 161.024 99.7006 161.024C101.729 161.024 103.282 161.636 104.358 162.859C105.446 164.072 105.99 165.67 105.99 167.653V179.841H101.893ZM79.8126 179.841V161.483H83.4332V167.177H83.9432V179.841H79.8126ZM90.8785 179.841V168.741C90.8785 167.46 90.5668 166.463 89.9436 165.749C89.3203 165.035 88.4704 164.678 87.3938 164.678C86.3513 164.678 85.5127 165.035 84.8781 165.749C84.2548 166.463 83.9432 167.392 83.9432 168.537L82.1074 167.313C82.1074 166.123 82.402 165.052 82.9913 164.1C83.5805 163.148 84.3738 162.401 85.371 161.857C86.3796 161.301 87.5071 161.024 88.7537 161.024C90.1249 161.024 91.2694 161.318 92.1873 161.908C93.1166 162.486 93.8078 163.279 94.2611 164.287C94.7257 165.285 94.958 166.412 94.958 167.67V179.841H90.8785Z" fill="var(--fill-0, #FBFDFF)"/>
<path d="M114.877 180.351C113.551 180.351 112.429 180.101 111.511 179.603C110.594 179.093 109.897 178.419 109.421 177.58C108.956 176.741 108.724 175.818 108.724 174.809C108.724 173.925 108.871 173.132 109.166 172.429C109.46 171.716 109.914 171.104 110.526 170.594C111.137 170.072 111.931 169.647 112.905 169.319C113.642 169.081 114.503 168.866 115.489 168.673C116.486 168.48 117.563 168.305 118.719 168.146C119.886 167.976 121.104 167.795 122.373 167.602L120.911 168.435C120.923 167.166 120.639 166.231 120.062 165.63C119.484 165.03 118.509 164.729 117.138 164.729C116.311 164.729 115.512 164.922 114.741 165.307C113.97 165.693 113.432 166.355 113.126 167.296L109.387 166.123C109.84 164.571 110.701 163.324 111.97 162.384C113.251 161.443 114.973 160.973 117.138 160.973C118.77 160.973 120.203 161.239 121.438 161.772C122.685 162.304 123.609 163.177 124.209 164.389C124.538 165.035 124.736 165.698 124.804 166.378C124.872 167.047 124.906 167.778 124.906 168.571V179.841H121.319V175.863L121.914 176.509C121.087 177.835 120.118 178.809 119.008 179.433C117.908 180.045 116.532 180.351 114.877 180.351ZM115.693 177.087C116.622 177.087 117.415 176.923 118.073 176.594C118.73 176.265 119.251 175.863 119.637 175.387C120.033 174.911 120.3 174.464 120.435 174.044C120.651 173.523 120.77 172.928 120.792 172.259C120.826 171.58 120.843 171.03 120.843 170.611L122.101 170.985C120.866 171.177 119.807 171.347 118.923 171.495C118.039 171.642 117.279 171.784 116.645 171.92C116.01 172.044 115.449 172.186 114.962 172.344C114.486 172.514 114.084 172.713 113.755 172.939C113.427 173.166 113.172 173.427 112.99 173.721C112.82 174.016 112.735 174.362 112.735 174.758C112.735 175.212 112.849 175.614 113.075 175.965C113.302 176.305 113.631 176.577 114.061 176.781C114.503 176.985 115.047 177.087 115.693 177.087Z" fill="var(--fill-0, #FBFDFF)"/>
<path d="M139.411 179.841C138.199 180.067 137.009 180.164 135.842 180.13C134.686 180.107 133.649 179.897 132.731 179.501C131.813 179.093 131.116 178.453 130.64 177.58C130.221 176.787 130 175.976 129.977 175.149C129.955 174.322 129.943 173.387 129.943 172.344V156.383H134.023V172.107C134.023 172.843 134.029 173.489 134.04 174.044C134.063 174.6 134.182 175.053 134.397 175.404C134.805 176.084 135.456 176.464 136.352 176.543C137.247 176.622 138.267 176.577 139.411 176.407V179.841ZM126.612 164.695V161.483H139.411V164.695H126.612Z" fill="var(--fill-0, #FBFDFF)"/>
<path d="M143.019 158.695V154.938H147.116V158.695H143.019ZM143.019 179.841V161.483H147.116V179.841H143.019Z" fill="var(--fill-0, #FBFDFF)"/>
<path d="M159.5 180.351C157.607 180.351 155.992 179.931 154.655 179.093C153.318 178.243 152.292 177.087 151.578 175.625C150.876 174.163 150.519 172.509 150.508 170.662C150.519 168.781 150.887 167.115 151.612 165.664C152.349 164.202 153.392 163.058 154.74 162.231C156.089 161.392 157.692 160.973 159.551 160.973C161.636 160.973 163.398 161.5 164.837 162.554C166.288 163.596 167.234 165.024 167.676 166.837L163.596 167.942C163.279 166.956 162.752 166.191 162.015 165.647C161.279 165.092 160.44 164.814 159.5 164.814C158.434 164.814 157.556 165.069 156.865 165.579C156.174 166.078 155.664 166.769 155.335 167.653C155.006 168.537 154.842 169.54 154.842 170.662C154.842 172.407 155.233 173.818 156.015 174.894C156.797 175.971 157.958 176.509 159.5 176.509C160.587 176.509 161.443 176.26 162.066 175.761C162.701 175.263 163.177 174.543 163.494 173.602L167.676 174.537C167.109 176.407 166.118 177.846 164.701 178.855C163.285 179.852 161.551 180.351 159.5 180.351Z" fill="var(--fill-0, #FBFDFF)"/>
</g>
<g id="Group 84">
<ellipse id="Ellipse 254" cx="26.367" cy="132.481" rx="12.7036" ry="12.7035" fill="var(--fill-0, #FBFDFF)"/>
<path id="Vector" d="M150.302 39.5596C150.746 38.6725 152.054 38.6076 152.475 39.5055C156.616 48.3361 158.93 58.1937 158.93 68.5919C158.93 106.474 128.22 137.184 90.3381 137.184C52.4558 137.184 21.7462 106.474 21.7462 68.5919C21.7462 30.7096 52.4558 0 90.3381 0C100.701 1.08856e-05 110.527 2.29825 119.334 6.41254C120.233 6.83225 120.17 8.14076 119.283 8.58529C111.717 12.3795 106.524 20.2071 106.524 29.2478C106.524 29.9115 105.846 30.3863 105.228 30.1442C100.579 28.3231 95.5186 27.3228 90.2241 27.3228C67.4948 27.3228 49.069 45.7486 49.069 68.4779C49.069 91.2072 67.4947 109.633 90.2239 109.633C112.953 109.633 131.379 91.2073 131.379 68.4779C131.379 63.2819 130.416 58.311 128.659 53.7335C128.405 53.0711 128.915 52.349 129.625 52.349C138.678 52.349 146.514 47.142 150.302 39.5596Z" fill="var(--fill-0, #FBFDFF)"/>
</g>
</g>
</svg>
