<svg width="161.58" height="36" viewBox="0 0 161.58 35.9995" fill="none" xmlns="http://www.w3.org/2000/svg">
<g id="Optomatic">
<path d="M50.6293 26.9582C48.888 26.9582 47.3966 26.5793 46.1551 25.8215C44.9137 25.0557 43.9584 23.9915 43.2893 22.6291C42.6282 21.2667 42.2977 19.6866 42.2977 17.8888C42.2977 16.0911 42.6282 14.511 43.2893 13.1486C43.9584 11.7862 44.9137 10.726 46.1551 9.96825C47.3966 9.20239 48.888 8.81946 50.6293 8.81946C52.3706 8.81946 53.862 9.20239 55.1035 9.96825C56.353 10.726 57.3083 11.7862 57.9693 13.1486C58.6384 14.511 58.973 16.0911 58.973 17.8888C58.973 19.6866 58.6384 21.2667 57.9693 22.6291C57.3083 23.9915 56.353 25.0557 55.1035 25.8215C53.862 26.5793 52.3706 26.9582 50.6293 26.9582ZM50.6293 24.2132C51.7982 24.2213 52.7696 23.9633 53.5435 23.4393C54.3255 22.9153 54.91 22.1777 55.2969 21.2264C55.6919 20.2751 55.8895 19.1626 55.8895 17.8888C55.8895 16.6151 55.6919 15.5107 55.2969 14.5755C54.91 13.6323 54.3255 12.8987 53.5435 12.3747C52.7696 11.8507 51.7982 11.5806 50.6293 11.5645C49.4604 11.5564 48.4889 11.8144 47.715 12.3384C46.9411 12.8624 46.3567 13.6 45.9617 14.5513C45.5747 15.5026 45.3812 16.6151 45.3812 17.8888C45.3812 19.1626 45.5747 20.2711 45.9617 21.2143C46.3486 22.1494 46.929 22.879 47.7029 23.403C48.4849 23.927 49.4604 24.1971 50.6293 24.2132Z" fill="#1A1B1B"/>
<path d="M67.1722 26.9582C65.8984 26.9582 64.8303 26.6559 63.9677 26.0513C63.1051 25.4467 62.4562 24.6244 62.0208 23.5844C61.5855 22.5364 61.3678 21.3634 61.3678 20.0655C61.3678 18.7514 61.5855 17.5744 62.0208 16.5345C62.4562 15.4945 63.093 14.6763 63.9314 14.0797C64.7779 13.4751 65.8218 13.1728 67.0633 13.1728C68.2967 13.1728 69.3649 13.4751 70.2678 14.0797C71.1787 14.6763 71.8841 15.4945 72.3839 16.5345C72.8838 17.5664 73.1337 18.7434 73.1337 20.0655C73.1337 21.3715 72.8878 22.5445 72.396 23.5844C71.9043 24.6244 71.211 25.4467 70.3162 26.0513C69.4213 26.6559 68.3733 26.9582 67.1722 26.9582ZM60.8721 32.3999V13.5355H63.4477V22.7017H63.8105V32.3999H60.8721ZM66.7247 24.3462C67.4825 24.3462 68.1073 24.1568 68.5991 23.7779C69.0908 23.399 69.4536 22.8871 69.6874 22.2421C69.9292 21.5891 70.0501 20.8636 70.0501 20.0655C70.0501 19.2755 69.9292 18.558 69.6874 17.913C69.4455 17.26 69.0707 16.7441 68.5628 16.3652C68.0549 15.9782 67.41 15.7847 66.628 15.7847C65.8863 15.7847 65.2817 15.9661 64.8142 16.3289C64.3466 16.6836 63.9999 17.1834 63.7742 17.8284C63.5566 18.4653 63.4477 19.211 63.4477 20.0655C63.4477 20.912 63.5566 21.6577 63.7742 22.3026C63.9999 22.9475 64.3506 23.4514 64.8262 23.8142C65.3099 24.1689 65.9428 24.3462 66.7247 24.3462Z" fill="#1A1B1B"/>
<path d="M82.9698 26.5954C82.1072 26.7567 81.2608 26.8252 80.4304 26.801C79.6082 26.7849 78.8705 26.6358 78.2175 26.3536C77.5646 26.0634 77.0688 25.6079 76.7302 24.9871C76.4319 24.4228 76.2747 23.8464 76.2586 23.2579C76.2425 22.6694 76.2344 22.0043 76.2344 21.2627V9.90779H79.1366V21.0934C79.1366 21.6174 79.1406 22.0769 79.1487 22.4719C79.1648 22.8669 79.2494 23.1894 79.4026 23.4393C79.6928 23.923 80.1563 24.1931 80.7932 24.2495C81.4301 24.3059 82.1556 24.2737 82.9698 24.1528V26.5954ZM73.8643 15.821V13.5355H82.9698V15.821H73.8643Z" fill="#1A1B1B"/>
<path d="M90.4011 26.9582C89.0952 26.9582 87.9544 26.664 86.979 26.0755C86.0036 25.487 85.2458 24.6768 84.7056 23.6449C84.1736 22.6049 83.9076 21.4118 83.9076 20.0655C83.9076 18.695 84.1816 17.4938 84.7298 16.4619C85.278 15.43 86.0398 14.6239 87.0153 14.0434C87.9907 13.463 89.1193 13.1728 90.4011 13.1728C91.7152 13.1728 92.8599 13.467 93.8353 14.0555C94.8108 14.644 95.5686 15.4582 96.1087 16.4982C96.6488 17.5301 96.9189 18.7192 96.9189 20.0655C96.9189 21.4199 96.6448 22.617 96.0966 23.657C95.5565 24.6889 94.7987 25.4991 93.8233 26.0876C92.8478 26.668 91.7071 26.9582 90.4011 26.9582ZM90.4011 24.2253C91.562 24.2253 92.4246 23.8384 92.9889 23.0644C93.5532 22.2905 93.8353 21.2909 93.8353 20.0655C93.8353 18.7998 93.5492 17.7921 92.9768 17.0424C92.4044 16.2846 91.5459 15.9057 90.4011 15.9057C89.6192 15.9057 88.9742 16.083 88.4664 16.4377C87.9665 16.7844 87.5957 17.2721 87.3539 17.9009C87.112 18.5217 86.9911 19.2432 86.9911 20.0655C86.9911 21.3312 87.2773 22.3429 87.8497 23.1007C88.4301 23.8504 89.2806 24.2253 90.4011 24.2253Z" fill="#1A1B1B"/>
<path d="M114.783 26.5954V18.6628C114.783 17.7679 114.562 17.0706 114.118 16.5708C113.675 16.0629 113.074 15.8089 112.316 15.8089C111.849 15.8089 111.43 15.9178 111.059 16.1354C110.688 16.345 110.394 16.6594 110.176 17.0786C109.958 17.4898 109.85 17.9816 109.85 18.5539L108.556 17.7921C108.548 16.8892 108.749 16.0951 109.16 15.4099C109.579 14.7166 110.144 14.1764 110.853 13.7895C111.563 13.4025 112.353 13.209 113.223 13.209C114.666 13.209 115.771 13.6444 116.537 14.515C117.311 15.3776 117.697 16.5143 117.697 17.9251V26.5954H114.783ZM99.0753 26.5954V13.5355H101.651V17.5865H102.014V26.5954H99.0753ZM106.947 26.5954V18.699C106.947 17.7881 106.726 17.0786 106.282 16.5708C105.839 16.0629 105.234 15.8089 104.468 15.8089C103.727 15.8089 103.13 16.0629 102.679 16.5708C102.235 17.0786 102.014 17.7397 102.014 18.5539L100.708 17.6833C100.708 16.8368 100.917 16.075 101.337 15.3978C101.756 14.7206 102.32 14.1885 103.029 13.8016C103.747 13.4066 104.549 13.209 105.436 13.209C106.411 13.209 107.226 13.4186 107.879 13.8379C108.54 14.249 109.031 14.8133 109.354 15.5308C109.684 16.2402 109.85 17.0424 109.85 17.9372V26.5954H106.947Z" fill="#1A1B1B"/>
<path d="M124.02 26.9582C123.076 26.9582 122.278 26.7809 121.625 26.4262C120.972 26.0634 120.477 25.5837 120.138 24.9871C119.808 24.3906 119.642 23.7336 119.642 23.0161C119.642 22.3873 119.747 21.8229 119.957 21.3231C120.166 20.8152 120.489 20.3799 120.924 20.0171C121.359 19.6463 121.924 19.344 122.617 19.1102C123.141 18.9409 123.754 18.7877 124.455 18.6507C125.164 18.5136 125.93 18.3887 126.753 18.2758C127.583 18.1549 128.45 18.0259 129.352 17.8888L128.312 18.4814C128.321 17.5785 128.119 16.9134 127.708 16.4861C127.297 16.0588 126.603 15.8452 125.628 15.8452C125.039 15.8452 124.471 15.9823 123.923 16.2564C123.375 16.5305 122.992 17.0021 122.774 17.6712L120.114 16.8368C120.436 15.7323 121.049 14.8456 121.952 14.1764C122.863 13.5073 124.088 13.1728 125.628 13.1728C126.789 13.1728 127.809 13.3622 128.687 13.7411C129.574 14.12 130.231 14.7408 130.658 15.6034C130.892 16.0629 131.033 16.5345 131.082 17.0182C131.13 17.4938 131.154 18.0138 131.154 18.5781V26.5954H128.603V23.7658L129.026 24.2253C128.437 25.1685 127.748 25.8618 126.958 26.3052C126.176 26.7406 125.197 26.9582 124.02 26.9582ZM124.6 24.6365C125.261 24.6365 125.825 24.5196 126.293 24.2858C126.761 24.052 127.131 23.7658 127.406 23.4272C127.688 23.0886 127.877 22.7702 127.974 22.4719C128.127 22.1011 128.212 21.6778 128.228 21.2022C128.252 20.7185 128.264 20.3275 128.264 20.0292L129.159 20.2953C128.28 20.4323 127.526 20.5532 126.898 20.658C126.269 20.7628 125.729 20.8636 125.277 20.9603C124.826 21.049 124.427 21.1498 124.08 21.2627C123.742 21.3836 123.455 21.5247 123.222 21.6859C122.988 21.8471 122.806 22.0325 122.677 22.2421C122.557 22.4517 122.496 22.6976 122.496 22.9798C122.496 23.3023 122.577 23.5884 122.738 23.8384C122.899 24.0802 123.133 24.2737 123.439 24.4188C123.754 24.5639 124.141 24.6365 124.6 24.6365Z" fill="#1A1B1B"/>
<path d="M141.473 26.5954C140.61 26.7567 139.764 26.8252 138.934 26.801C138.111 26.7849 137.374 26.6358 136.721 26.3536C136.068 26.0634 135.572 25.6079 135.233 24.9871C134.935 24.4228 134.778 23.8464 134.762 23.2579C134.746 22.6694 134.738 22.0043 134.738 21.2627V9.90779H137.64V21.0934C137.64 21.6174 137.644 22.0769 137.652 22.4719C137.668 22.8669 137.753 23.1894 137.906 23.4393C138.196 23.923 138.66 24.1931 139.296 24.2495C139.933 24.3059 140.659 24.2737 141.473 24.1528V26.5954ZM132.368 15.821V13.5355H141.473V15.821H132.368Z" fill="#1A1B1B"/>
<path d="M144.039 11.5524V8.87993H146.954V11.5524H144.039ZM144.039 26.5954V13.5355H146.954V26.5954H144.039Z" fill="#1A1B1B"/>
<path d="M155.764 26.9582C154.417 26.9582 153.269 26.6599 152.317 26.0634C151.366 25.4588 150.636 24.6365 150.129 23.5965C149.629 22.5566 149.375 21.3795 149.367 20.0655C149.375 18.7273 149.637 17.5422 150.153 16.5103C150.677 15.4703 151.418 14.6561 152.378 14.0676C153.337 13.471 154.478 13.1728 155.8 13.1728C157.283 13.1728 158.537 13.5476 159.561 14.2974C160.592 15.039 161.266 16.0548 161.58 17.3447L158.678 18.1307C158.452 17.4293 158.077 16.8852 157.553 16.4982C157.029 16.1032 156.433 15.9057 155.764 15.9057C155.006 15.9057 154.381 16.0871 153.889 16.4498C153.397 16.8045 153.035 17.2963 152.801 17.9251C152.567 18.5539 152.45 19.2674 152.45 20.0655C152.45 21.307 152.728 22.3107 153.285 23.0765C153.841 23.8424 154.667 24.2253 155.764 24.2253C156.537 24.2253 157.146 24.048 157.589 23.6932C158.041 23.3385 158.38 22.8266 158.605 22.1575L161.58 22.8226C161.177 24.1528 160.471 25.1766 159.464 25.8941C158.456 26.6035 157.223 26.9582 155.764 26.9582Z" fill="#1A1B1B"/>
</g>
<g id="logo-mark">
<ellipse cx="3.15" cy="32.8495" rx="3.15" ry="3.15005" fill="#4428FF"/>
<path d="M33.8801 9.80945C33.99 9.58948 34.3144 9.57339 34.4188 9.79603C35.4456 11.9857 36.0194 14.4301 36.0194 17.0085C36.0194 26.402 28.4046 34.017 19.0112 34.017C9.61779 34.017 2.00296 26.402 2.00295 17.0085C2.00295 7.61495 9.61779 0 19.0112 0C21.5808 2.69925e-06 24.0172 0.569889 26.2011 1.59009C26.4239 1.69417 26.4083 2.01863 26.1885 2.12886C24.3124 3.06971 23.0246 5.01069 23.0246 7.25248C23.0246 7.41706 22.8566 7.53478 22.7034 7.47475C21.5506 7.02317 20.2958 6.77513 18.9829 6.77513C13.3469 6.77514 8.77799 11.3441 8.77798 16.9802C8.77798 22.6163 13.3469 27.1853 18.9829 27.1854C24.6189 27.1854 29.1878 22.6163 29.1878 16.9802C29.1878 15.6918 28.949 14.4592 28.5133 13.3241C28.4502 13.1599 28.5769 12.9808 28.7529 12.9808C30.9976 12.9808 32.9406 11.6896 33.8801 9.80945Z" fill="#4428FF"/>
</g>
</svg>
