<svg preserveAspectRatio="none" width="100%" height="100%" overflow="visible" style="display: block;" viewBox="0 0 72.0177 24" fill="none" xmlns="http://www.w3.org/2000/svg">
<g id="Frame 128">
<path id="Subtract" d="M15.9092 0C18.7776 0.00497987 18.8896 0.0292949 19.4502 0.110352C20.607 0.277284 21.5782 0.738661 22.3721 1.49707C22.8167 1.92503 23.1226 2.34388 23.3984 2.9043C23.7347 3.58924 23.9009 4.2375 23.9766 5.20117C23.9928 5.40796 24 8.69913 24 11.9922C24 15.2837 23.9928 18.5797 23.9766 18.7881C23.9018 19.7365 23.7369 20.3904 23.4111 21.0625C22.7633 22.3992 21.5726 23.374 20.1348 23.7451C19.6133 23.8799 19.1413 23.9432 18.3291 23.9814C18.0376 23.9962 15.0073 24 11.9775 24C8.94706 24 5.91857 23.9905 5.62109 23.9775C4.91985 23.9443 4.3735 23.8744 3.87891 23.7471C2.45025 23.3778 1.2375 22.3876 0.602539 21.0693C0.270391 20.3808 0.11333 19.7514 0.0302734 18.751C0.00627196 18.4666 0.000976562 17.0023 0.000976562 11.9951C0.000976508 10.3082 -0.000864794 9.05036 0.000976562 8.09473C0.00577569 5.22796 0.0291418 5.11302 0.110352 4.55176C0.277457 3.39582 0.738727 2.42328 1.5 1.63281C1.91808 1.1993 2.34178 0.889846 2.87891 0.623047C3.57585 0.275987 4.21608 0.113799 5.24414 0.0283203C5.52998 0.00472098 6.99652 0 12.0039 0H15.9092ZM12.0029 3.07324C9.58098 3.07325 9.27664 3.08368 8.3252 3.12695C7.37527 3.17042 6.72654 3.32051 6.15918 3.54102C5.5723 3.76876 5.0741 4.07354 4.57812 4.56934C4.08198 5.0648 3.77744 5.56239 3.54883 6.14844C3.32764 6.71549 3.17657 7.36386 3.13379 8.3125C3.09122 9.26361 3.08008 9.56861 3.08008 11.9902C3.08008 14.4111 3.09166 14.7143 3.13477 15.665C3.17846 16.6143 3.32836 17.2631 3.54883 17.8301C3.77691 18.4164 4.08206 18.9137 4.57812 19.4092C5.07391 19.9051 5.57172 20.2107 6.1582 20.4385C6.72591 20.659 7.37453 20.8091 8.32422 20.8525C9.276 20.8958 9.57994 20.9062 12.0029 20.9062C14.4264 20.9062 14.7299 20.8958 15.6816 20.8525C16.6316 20.8091 17.2809 20.659 17.8486 20.4385C18.4352 20.2108 18.932 19.9051 19.4277 19.4092C19.924 18.9136 20.2294 18.4163 20.458 17.8301C20.6773 17.263 20.8284 16.6147 20.873 15.666C20.9158 14.715 20.9268 14.4115 20.9268 11.9902C20.9268 9.56889 20.9158 9.26433 20.873 8.31348C20.8284 7.36441 20.6773 6.71628 20.458 6.14941C20.2294 5.56295 19.9241 5.06495 19.4277 4.56934C18.9315 4.0735 18.435 3.76854 17.8477 3.54102C17.2789 3.32061 16.6303 3.17043 15.6807 3.12695C14.729 3.08368 14.4257 3.07325 12.0029 3.07324ZM11.2041 4.67969C11.4415 4.67932 11.7064 4.67969 12.0039 4.67969C14.3864 4.67969 14.6695 4.68872 15.6104 4.73145C16.48 4.77122 16.9521 4.91607 17.2666 5.03809C17.683 5.19968 17.9799 5.39307 18.292 5.70508C18.6043 6.01714 18.7979 6.31442 18.96 6.73047C19.0821 7.0444 19.228 7.51638 19.2676 8.38574C19.3103 9.32564 19.3193 9.60808 19.3193 11.9873C19.3193 14.3669 19.3103 14.6499 19.2676 15.5898C19.2278 16.4592 19.0821 16.9312 18.96 17.2451C18.7982 17.6611 18.6043 17.9577 18.292 18.2695C17.9798 18.5815 17.6831 18.7749 17.2666 18.9365C16.9525 19.0591 16.4799 19.2034 15.6104 19.2432C14.6697 19.2859 14.3864 19.2949 12.0039 19.2949C9.62157 19.2949 9.33904 19.2859 8.39844 19.2432C7.52853 19.203 7.05593 19.0576 6.74121 18.9355C6.32506 18.774 6.02799 18.5805 5.71582 18.2686C5.40356 17.9565 5.20995 17.6604 5.04785 17.2441C4.92572 16.9302 4.77983 16.4582 4.74023 15.5889C4.69748 14.649 4.68945 14.3664 4.68945 11.9854C4.68945 9.6046 4.69749 9.32354 4.74023 8.38379C4.78 7.51476 4.92575 7.04283 5.04785 6.72852C5.20958 6.3124 5.40351 6.01423 5.71582 5.70215C6.0279 5.39037 6.32514 5.19705 6.74121 5.03516C7.05574 4.91255 7.52851 4.76749 8.39844 4.72754C9.2216 4.69039 9.54105 4.6796 11.2041 4.67773V4.67969ZM12.0039 7.41113C9.47343 7.41133 7.42188 9.46154 7.42188 11.9902C7.42211 14.5187 9.47358 16.5682 12.0039 16.5684C14.5344 16.5684 16.5857 14.5188 16.5859 11.9902C16.5859 9.46143 14.5345 7.41113 12.0039 7.41113ZM12.0039 9.01758C13.6465 9.01758 14.9785 10.3486 14.9785 11.9902C14.9783 13.6315 13.6464 14.9619 12.0039 14.9619C10.3614 14.9617 9.03051 13.6313 9.03027 11.9902C9.03027 10.3488 10.3613 9.01777 12.0039 9.01758ZM16.7676 6.16016C16.1764 6.16016 15.6963 6.63956 15.6963 7.23047C15.6965 7.82106 16.1765 8.2998 16.7676 8.2998C17.3585 8.29969 17.8377 7.82099 17.8379 7.23047C17.8379 6.63982 17.3586 6.16028 16.7676 6.16016Z" fill="var(--fill-0, #FBFDFF)"/>
<path id="Vector" d="M60.0087 0C53.3731 0 47.9997 5.3734 47.9997 12.009C47.9997 17.0939 51.1552 21.4395 55.627 23.1886C55.5188 22.2329 55.4287 20.7904 55.6631 19.7446C55.8795 18.8069 57.0695 13.7761 57.0695 13.7761C57.0695 13.7761 56.7089 13.0548 56.7089 11.991C56.7089 10.314 57.6826 9.06987 58.8727 9.06987C59.9005 9.06987 60.3873 9.84523 60.3873 10.7648C60.3873 11.7926 59.7382 13.3434 59.3956 14.7678C59.1071 15.9579 59.9906 16.9316 61.1807 16.9316C63.3085 16.9316 64.9493 14.6777 64.9493 11.432C64.9493 8.56499 62.8757 6.54545 59.9366 6.54545C56.5286 6.54545 54.5091 9.10593 54.5091 11.7566C54.5091 12.7844 54.9057 13.9023 55.4106 14.4974C55.5008 14.6236 55.5188 14.7137 55.5008 14.84C55.4106 15.2186 55.2123 16.0301 55.1762 16.1923C55.1221 16.4087 54.9959 16.4628 54.7795 16.3546C53.2829 15.6514 52.3453 13.4696 52.3453 11.7025C52.3453 7.91585 55.1041 4.43576 60.2792 4.43576C64.4444 4.43576 67.6721 7.41097 67.6721 11.3599C67.6721 15.4891 65.0575 18.8249 61.4512 18.8249C60.2431 18.8249 59.0891 18.1938 58.6924 17.4545C58.6924 17.4545 58.0973 19.7446 57.9531 20.3035C57.6826 21.3494 56.9433 22.6476 56.4565 23.4591C57.5744 23.8017 58.7645 24 60.0087 24C66.6443 24 72.0177 18.6266 72.0177 11.991C72.0177 5.3734 66.6443 0 60.0087 0Z" fill="var(--fill-0, #FBFDFF)"/>
</g>
</svg>
