<svg preserveAspectRatio="none" width="100%" height="100%" overflow="visible" style="display: block;" viewBox="0 0 24 24" fill="none" xmlns="http://www.w3.org/2000/svg">
<g id="heroicons:paper-clip-20-solid">
<path id="Vector" fill-rule="evenodd" clip-rule="evenodd" d="M17.6193 6.38072C17.0568 5.81838 16.2939 5.50248 15.4986 5.50248C14.7032 5.50248 13.9403 5.81838 13.3778 6.38072L6.37872 13.3798C5.83218 13.9454 5.52966 14.7031 5.53631 15.4896C5.54296 16.2761 5.85824 17.0285 6.41427 17.5848C6.97029 18.141 7.72256 18.4567 8.50905 18.4637C9.29553 18.4707 10.0533 18.1686 10.6192 17.6223H10.6202L11.1171 17.1223C11.2581 16.9852 11.4473 16.9089 11.644 16.91C11.8406 16.911 12.029 16.9892 12.1685 17.1278C12.3081 17.2665 12.3876 17.4543 12.3899 17.651C12.3922 17.8476 12.3172 18.0373 12.181 18.1792L11.683 18.6801L11.681 18.6821C10.8372 19.526 9.69278 20 8.49945 20C7.30612 20 6.16167 19.526 5.31786 18.6821C4.47405 17.8383 4 16.6939 4 15.5006C4 14.3072 4.47405 13.1628 5.31786 12.319L12.317 5.31986C13.1602 4.47552 14.3044 4.00075 15.4977 4C16.6911 3.99925 17.8358 4.47258 18.6801 5.31586C19.5245 6.15914 19.9993 7.30329 20 8.49662C20.0008 9.68995 19.5274 10.8347 18.6841 11.679L15.2296 15.2316C14.9884 15.486 14.6987 15.6894 14.3776 15.83C14.0564 15.9706 13.7104 16.0454 13.3599 16.0501C13.0094 16.0547 12.6615 15.9891 12.3367 15.8571C12.012 15.7251 11.717 15.5294 11.4691 15.2816C11.2212 15.0337 11.0255 14.7387 10.8935 14.4139C10.7615 14.0892 10.6959 13.7413 10.7006 13.3908C10.7052 13.0403 10.7801 12.6942 10.9206 12.3731C11.0612 12.052 11.2647 11.7623 11.5191 11.5211L14.9686 8.07051C15.0378 7.99885 15.1205 7.94168 15.212 7.90234C15.3034 7.86299 15.4018 7.84226 15.5014 7.84135C15.601 7.84044 15.6997 7.85936 15.7919 7.89703C15.8841 7.93469 15.9678 7.99033 16.0383 8.06071C16.1087 8.13109 16.1644 8.21479 16.2022 8.30693C16.2399 8.39907 16.259 8.49781 16.2581 8.59738C16.2573 8.69695 16.2367 8.79537 16.1974 8.88688C16.1582 8.97838 16.1011 9.06116 16.0295 9.13037L12.5799 12.5809C12.4752 12.6851 12.392 12.8089 12.3352 12.9452C12.2783 13.0816 12.2488 13.2278 12.2485 13.3755C12.2481 13.5232 12.2768 13.6696 12.333 13.8062C12.3892 13.9428 12.4717 14.067 12.5759 14.1717C12.6801 14.2764 12.8039 14.3596 12.9402 14.4165C13.0766 14.4734 13.2228 14.5028 13.3705 14.5032C13.5182 14.5036 13.6646 14.4748 13.8012 14.4186C13.9378 14.3625 14.062 14.2799 14.1667 14.1757L17.6203 10.6232C18.1826 10.0607 18.4985 9.29784 18.4985 8.50245C18.4985 7.70706 18.1826 6.94423 17.6203 6.38172" fill="var(--fill-0, white)"/>
</g>
</svg>
