<svg preserveAspectRatio="none" width="100%" height="100%" overflow="visible" style="display: block;" viewBox="0 0 150 30" fill="none" xmlns="http://www.w3.org/2000/svg">
<g id="logo" clip-path="url(#clip0_0_4)">
<path id="Vector" d="M18.6844 8.5002C17.6529 4.58725 13.7927 2.03682 9.79449 2.4937C5.77594 2.95059 2.44983 6.31528 2.44373 10.4882L2.41124 29.1534L-0.0234375 29.1615L0.0110826 10.4029C0.0232662 4.52227 5.0632 -0.0282959 10.7651 0.000132469C16.5685 0.0285608 21.2937 4.65629 21.4582 10.4394C21.6227 16.1962 17.1635 21.163 11.2423 21.4859C12.5703 26.3207 17.9087 28.863 22.4979 26.8791C27.0769 24.8993 28.9714 19.3415 26.3357 14.9575L28.411 13.6762C31.8406 19.307 29.3978 26.607 23.432 29.1351C17.3097 31.7302 10.3935 28.2274 8.81168 21.8656C7.19939 15.388 11.7317 8.94287 18.6844 8.49614V8.5002ZM19.0114 10.9511C14.4852 11.0669 11.0068 14.7362 10.9418 19.0573C15.3969 18.8968 18.9058 15.3392 19.0114 10.9511Z" fill="var(--fill-0, white)"/>
<path id="Vector_2" d="M133.342 22.5173L133.311 13.1177L129.027 18.716C128.783 18.7769 128.48 18.7912 128.212 18.7526L123.869 13.0872L123.846 22.4929H121.625V7.64726C121.867 7.58838 122.159 7.58432 122.384 7.64726L128.602 15.926L134.848 7.61477C135.078 7.59853 135.346 7.61071 135.553 7.64726V22.4909L133.339 22.5173H133.342Z" fill="var(--fill-0, white)"/>
<path id="Vector_3" d="M119.143 15.1832C119.143 19.4169 115.712 22.8507 111.478 22.8507C107.244 22.8507 103.812 19.419 103.812 15.1832C103.812 10.9473 107.244 7.51562 111.478 7.51562C115.712 7.51562 119.143 10.9473 119.143 15.1832ZM111.301 20.7409C113.322 20.7998 115.097 19.8434 116.092 18.1478C117.158 16.3345 117.172 14.0724 116.122 12.2388C115.064 10.393 113.066 9.46703 110.968 9.64572C108.889 9.82238 107.143 11.0996 106.446 13.0754C105.93 14.5374 105.961 16.0969 106.554 17.5265C107.354 19.4576 109.145 20.6779 111.301 20.7409Z" fill="var(--fill-0, white)"/>
<path id="Vector_4" d="M84.497 18.5142L84.5193 16.8085L79.9728 16.7984L79.9566 14.851L86.7408 14.8429L86.7327 18.9467C85.2828 21.4261 82.6552 22.7845 79.8063 22.7663C76.6427 22.746 73.814 20.8392 72.7053 18.0228C71.5032 14.9668 72.3114 11.5533 74.7725 9.44557C77.9889 6.69412 83.3497 6.95404 85.9204 10.5929L84.3041 11.9188C83.1365 10.2395 81.3597 9.49431 79.4144 9.63442C76.9107 9.81514 74.9532 11.6 74.5613 14.0977C74.2912 15.8135 74.6446 17.5476 75.7715 18.8858C77.9808 21.5093 82.4928 21.4708 84.4909 18.5101L84.497 18.5142Z" fill="var(--fill-0, white)"/>
<path id="Vector_5" d="M69.7044 22.6232C69.5643 22.7937 69.0871 22.8465 68.9409 22.68L59.8824 12.3707L59.8621 22.4891L57.6406 22.4851V7.64956C57.8335 7.58255 58.2924 7.5196 58.4326 7.67392L67.4606 17.9244L67.4849 7.84246H69.7044V22.6211V22.6232Z" fill="var(--fill-0, white)"/>
<path id="Vector_6" d="M41.5455 14.8838L44.165 14.8067C45.5823 14.766 46.5266 13.6167 46.486 12.2258C46.4494 10.9404 45.5681 9.84389 44.2097 9.8317L40.0733 9.79109L40.0693 22.4864L37.8438 22.5006V7.84375H44.0371C44.8006 7.84375 45.5296 8.04884 46.2159 8.30266C47.8363 8.99916 48.7602 10.5038 48.7765 12.242C48.7947 14.1345 47.7449 15.7813 45.8808 16.4413L50.2365 22.4356C49.3938 22.5392 48.6059 22.5168 47.7409 22.4904L41.5435 14.8838H41.5455Z" fill="var(--fill-0, white)"/>
<path id="Vector_7" d="M96.5011 20.728C98.2819 20.6042 99.6546 19.664 100.643 18.2121L102.317 19.4508C100.373 22.6023 96.2615 23.5241 92.9841 22.1576C90.1636 20.9818 88.3746 18.3116 88.3442 15.2535C88.3117 12.0817 90.1879 9.2775 93.1486 8.14036C96.428 6.88139 100.43 7.8378 102.313 10.9142L100.639 12.1508C99.4475 10.2867 97.423 9.35872 95.2543 9.68158C91.7596 10.2014 89.9625 13.6575 90.9108 16.8963C91.6276 19.3452 93.8897 20.9108 96.5011 20.728Z" fill="var(--fill-0, white)"/>
<path id="Vector_8" d="M146.268 22.0169C143.47 23.6454 139.464 22.5732 137.859 19.6471L139.399 18.4653C139.937 19.1253 140.426 19.7121 141.129 20.1528C142.225 20.8391 143.571 21.0097 144.743 20.498C145.482 20.1751 145.903 19.5172 145.957 18.7984C146.016 18.0064 145.6 17.3079 144.859 16.916C144 16.4632 143.135 16.0631 142.243 15.6509C140.424 14.8143 138.651 13.7016 138.682 11.5004C138.698 10.3186 139.24 9.19771 140.262 8.487C142.635 6.83613 146.477 7.52044 147.955 10.1521L146.416 11.3298C145.427 9.85562 143.742 9.21193 142.107 9.78252C141.413 10.0262 141.013 10.6719 140.962 11.3095C140.903 12.0629 141.281 12.7249 141.984 13.066L145.119 14.5889C146.053 15.0418 146.979 15.5738 147.582 16.4449C148.873 18.3029 148.193 20.896 146.268 22.0169Z" fill="var(--fill-0, white)"/>
<path id="Vector_9" d="M54.3193 7.83594H52.0938V22.5131H54.3193V7.83594Z" fill="var(--fill-0, white)"/>
<path id="Vector_10" d="M25.0529 13.1449C25.9322 13.1449 26.6449 12.4322 26.6449 11.5529C26.6449 10.6737 25.9322 9.96094 25.0529 9.96094C24.1737 9.96094 23.4609 10.6737 23.4609 11.5529C23.4609 12.4322 24.1737 13.1449 25.0529 13.1449Z" fill="var(--fill-0, white)"/>
</g>
<defs>
<clipPath id="clip0_0_4">
<rect width="150" height="30" fill="white"/>
</clipPath>
</defs>
</svg>
